<svg width="677" height="677" viewBox="0 0 677 677" fill="none" xmlns="http://www.w3.org/2000/svg">
<path d="M338.904 604.807C485.758 604.807 604.807 485.758 604.807 338.904C604.807 192.049 485.758 73 338.904 73C192.049 73 73 192.049 73 338.904C73 485.758 192.049 604.807 338.904 604.807Z" fill="#34E0A1"/>
<path d="M503.5 286.414L535.587 251.504H464.432C428.81 227.171 385.789 213 339.264 213C292.797 213 249.896 227.202 214.333 251.504H143L175.087 286.414C155.419 304.358 143.089 330.206 143.089 358.906C143.089 413.067 187.001 456.978 241.162 456.978C266.891 456.978 290.332 447.055 307.831 430.833L339.264 465.059L370.697 430.863C388.197 447.085 411.608 456.978 437.337 456.978C491.498 456.978 535.468 413.067 535.468 358.906C535.497 330.176 523.169 304.329 503.5 286.414ZM241.191 425.278C204.529 425.278 174.82 395.569 174.82 358.906C174.82 322.244 204.53 292.534 241.191 292.534C277.853 292.534 307.563 322.244 307.563 358.906C307.563 395.569 277.853 425.278 241.191 425.278ZM339.293 356.975C339.293 313.301 307.534 275.807 265.613 259.793C288.281 250.315 313.149 245.057 339.264 245.057C365.379 245.057 390.275 250.315 412.944 259.793C371.054 275.837 339.293 313.302 339.293 356.975ZM437.366 425.278C400.704 425.278 370.994 395.569 370.994 358.906C370.994 322.244 400.704 292.534 437.366 292.534C474.029 292.534 503.738 322.244 503.738 358.906C503.738 395.569 474.028 425.278 437.366 425.278ZM437.366 324.085C418.144 324.085 402.575 339.654 402.575 358.876C402.575 378.098 418.144 393.666 437.366 393.666C456.588 393.666 472.157 378.098 472.157 358.876C472.156 339.683 456.588 324.085 437.366 324.085ZM275.982 358.906C275.982 378.128 260.413 393.696 241.191 393.696C221.97 393.696 206.401 378.128 206.401 358.906C206.401 339.683 221.97 324.115 241.191 324.115C260.413 324.085 275.982 339.683 275.982 358.906Z" fill="black"/>
</svg>
